<?xml version="1.0" encoding="utf-8"?>
<!-- Generator: Adobe Illustrator 23.0.2, SVG Export Plug-In . SVG Version: 6.00 Build 0)  -->
<svg version="1.1" id="Capa_1" xmlns="http://www.w3.org/2000/svg" xmlns:xlink="http://www.w3.org/1999/xlink" x="0px" y="0px"
	 viewBox="0 0 140.52 42.49" style="enable-background:new 0 0 140.52 42.49;" xml:space="preserve">
<style type="text/css">
	.st0{fill:#3EAB37;}
	.st1{fill:#3EAB37;stroke:#FFFFFF;stroke-width:0.3675;stroke-miterlimit:10;}
	.st2{fill:#3EAB37;stroke:#FFFFFF;stroke-width:0.245;stroke-miterlimit:10;}
	.st3{fill:#FFFFFF;}
</style>
<g>
	<path class="st0" d="M88.79,31.46V20.58c0-1.52,1.23-2.76,2.76-2.76h0c1.52,0,2.76,1.23,2.76,2.76v11.98
		c0,4.11-3.33,7.43-7.43,7.43h-1.81l0,0c-4.38,0-7.92-3.55-7.92-7.92V20.58c0-1.52,1.23-2.76,2.76-2.76l0,0
		c1.52,0,2.76,1.23,2.76,2.76v10.78c0,1.72,1.4,3.12,3.12,3.12h0C87.43,34.49,88.79,33.13,88.79,31.46z"/>
	<path class="st0" d="M103.01,26.42v10.88c0,1.52-1.23,2.76-2.76,2.76h0c-1.52,0-2.76-1.23-2.76-2.76V25.31
		c0-4.11,3.33-7.43,7.43-7.43h1.81l0,0c4.38,0,7.92,3.55,7.92,7.92v11.49c0,1.52-1.23,2.76-2.76,2.76l0,0
		c-1.52,0-2.76-1.23-2.76-2.76V26.51c0-1.72-1.4-3.12-3.12-3.12h0C104.37,23.39,103.01,24.75,103.01,26.42z"/>
	<path class="st0" d="M56.75,26.2v11.04c0,1.52,1.23,2.76,2.76,2.76h0c1.52,0,2.76-1.23,2.76-2.76V26.37c0-1.67,1.36-3.03,3.03-3.03
		h0c1.72,0,3.12,1.4,3.12,3.12l0,10.78c0,1.52,1.23,2.76,2.76,2.76h0c1.52,0,2.76-1.23,2.76-2.76V25.75c0-4.38-3.55-7.92-7.92-7.92
		l0,0h-1.81c-1.84,0-3.53,0.67-4.83,1.78c-1.36-1.11-3.11-1.78-5.01-1.78h-1.81c-4.11,0-7.43,3.33-7.43,7.43v11.98
		c0,1.52,1.23,2.76,2.76,2.76c1.52,0,2.76-1.23,2.76-2.76V26.37c0-1.67,1.36-3.03,3.03-3.03h0c1.72,0,3.12,1.4,3.12,3.12v10.78
		c0,1.52,1.23,2.76,2.76,2.76h0c1.52,0,2.76-1.23,2.76-2.76l-0.01-10.88"/>
	<path class="st0" d="M24.73,24.87v7.91c0,4.38,3.55,7.92,7.92,7.92h1.81c4.11,0,7.43-3.33,7.43-7.43l0-7.76
		c0-4.38-3.55-7.92-7.92-7.92h-1.81c-4.11,0-7.43,3.33-7.43,7.43l5.51,1.11c0-1.67,1.36-3.03,3.03-3.03h0c1.72,0,3.12,1.4,3.12,3.12
		l0,5.95c0,1.67-1.36,3.03-3.03,3.03h0c-1.72,0-3.12-1.4-3.12-3.12l0-5.95"/>
	<path class="st0" d="M17.47,23.77c-0.87-0.42-1.85-0.63-2.89-0.57c-3.13,0.16-5.61,2.79-5.62,5.92c-0.01,3.29,2.66,5.96,5.94,5.96
		c1.07,0,2.07-0.28,2.94-0.78c0.83-0.48,1.88-0.36,2.55,0.32l0,0c1.57,1.59,1.02,4.25-1.05,5.1c-1.33,0.55-2.79,0.85-4.32,0.86
		C8.79,40.6,3.64,35.54,3.56,29.3C3.47,22.91,8.62,17.7,15,17.7c1.83,0,3.75,0.13,5.1,1.19c1.49,1.17,1.99,3,0.7,4.3l0,0
		C19.92,24.07,18.59,24.31,17.47,23.77z"/>
	<path class="st0" d="M125.19,33.58L125.19,33.58c-1.52,0-2.76-1.23-2.76-2.76V18.97c0-1.52,1.23-2.76,2.76-2.76h0
		c1.52,0,2.76,1.23,2.76,2.76v11.86C127.95,32.35,126.71,33.58,125.19,33.58z"/>
	<path class="st0" d="M120.25,39.78L120.25,39.78c0.91,0.44,2.01,0.06,2.45-0.86l3.62-7.52c0.44-0.91,0.06-2.01-0.86-2.45l0,0
		c-0.91-0.44-2.01-0.06-2.45,0.86l-3.62,7.52C118.95,38.25,119.34,39.34,120.25,39.78z"/>
	<path class="st0" d="M130.39,39.78L130.39,39.78c-0.91,0.44-2.01,0.06-2.45-0.86l-3.62-7.52c-0.44-0.91-0.06-2.01,0.86-2.45l0,0
		c0.91-0.44,2.01-0.06,2.45,0.86l3.62,7.52C131.68,38.25,131.3,39.34,130.39,39.78z"/>
	<path class="st0" d="M117.81,28.44L117.81,28.44c-0.78-0.5-1.01-1.53-0.52-2.31l5.28-8.3c0.5-0.78,1.53-1.01,2.31-0.52l0,0
		c0.78,0.5,1.01,1.53,0.52,2.31l-5.28,8.3C119.63,28.7,118.59,28.93,117.81,28.44z"/>
	<circle class="st1" cx="125.31" cy="9.15" r="7.32"/>
	<path class="st2" d="M127.14,18.9L127.14,18.9c0.65,0.65,1.72,0.65,2.37,0l6.96-6.96c0.65-0.65,0.65-1.72,0-2.37v0
		c-0.65-0.65-1.72-0.65-2.37,0l-6.96,6.96C126.49,17.19,126.49,18.25,127.14,18.9z"/>
	<path class="st3" d="M122.52,6.03c-0.38,0.66-0.34,1.59-1.15,1.67c-0.71,0.07-1.24-0.48-1.17-1.2c0.11-1.12,0.87-1.54,0.93-1.57
		c0.42-0.22,1.63-0.76,2.04-0.59C123.94,4.66,123.24,4.79,122.52,6.03z"/>
</g>
</svg>
