<svg width="1626" height="968" viewBox="0 0 1626 968" fill="none" xmlns="http://www.w3.org/2000/svg">
<g clip-path="url(#clip0)">
<line x1="669.035" y1="433.148" x2="256.035" y2="86.1485" stroke="#D4D4D4" stroke-width="3"/>
<line x1="274.5" y1="870.036" x2="255.5" y2="85.0363" stroke="#D4D4D4" stroke-width="3"/>
<line x1="1031.29" y1="744.472" x2="266.289" y2="894.472" stroke="#D4D4D4" stroke-width="3"/>
<line x1="1626.18" y1="179.489" x2="1048.18" y2="250.489" stroke="#D4D4D4" stroke-width="3"/>
<line x1="669.346" y1="430.65" x2="1047.35" y2="247.65" stroke="#D4D4D4" stroke-width="3"/>
<line x1="1047.21" y1="250.274" x2="833.208" y2="117.274" stroke="#D4D4D4" stroke-width="3"/>
<line x1="668.669" y1="431.309" x2="832.669" y2="115.309" stroke="#D4D4D4" stroke-width="3"/>
<line x1="671.115" y1="433.003" x2="277.115" y2="871.003" stroke="#D4D4D4" stroke-width="3"/>
<line x1="670.981" y1="430.865" x2="1031.98" y2="742.865" stroke="#D4D4D4" stroke-width="3"/>
<line x1="669.615" y1="430.55" x2="1625.61" y2="176.55" stroke="#D4D4D4" stroke-width="3"/>
<circle cx="670" cy="435" r="34" fill="#C4C4C4"/>
<circle cx="276" cy="870" r="276" fill="#6AAD64"/>
<circle cx="276" cy="870" r="276" fill="#8FD389"/>
<circle cx="276" cy="870" r="223" fill="#6AAD64"/>
<circle cx="276" cy="870" r="223" fill="#7DBE77"/>
<circle cx="276" cy="870" r="175" fill="#6AAD64"/>
<circle cx="276" cy="870" r="175" fill="#6AAD64"/>
<circle cx="257.5" cy="85.5" r="149" stroke="#B0B0B0"/>
<circle cx="257.5" cy="85.5" r="118" stroke="#B8B8B8"/>
<circle cx="257" cy="85" r="47" fill="#6AAD64"/>
<circle cx="257" cy="85" r="47" fill="#8BC886"/>
<circle cx="1030.5" cy="743.5" r="149" stroke="#B0B0B0"/>
<circle cx="1030.5" cy="743.5" r="118" stroke="#B8B8B8"/>
<circle cx="1030" cy="743" r="47" fill="#6AAD64"/>
<circle cx="1030" cy="743" r="47" fill="#8BC886"/>
<circle cx="833.5" cy="116.5" r="149" stroke="#B0B0B0"/>
<circle cx="833.5" cy="116.5" r="118" stroke="#B8B8B8"/>
<circle cx="833" cy="116" r="47" fill="#6AAD64"/>
<circle cx="833" cy="116" r="47" fill="#8BC886"/>
<circle cx="1047.5" cy="249.5" r="149" stroke="#B0B0B0"/>
<circle cx="1047.5" cy="249.5" r="118" stroke="#B8B8B8"/>
<circle cx="1047" cy="249" r="47" fill="#6AAD64"/>
<circle cx="1047" cy="249" r="47" fill="#8BC886"/>
<circle cx="1626" cy="178" r="276" fill="#6AAD64"/>
<circle cx="1626" cy="178" r="276" fill="#8FD389"/>
<circle cx="1626" cy="178" r="223" fill="#6AAD64"/>
<circle cx="1626" cy="178" r="223" fill="#7DBE77"/>
<circle cx="1626" cy="178" r="175" fill="#6AAD64"/>
<circle cx="1626" cy="178" r="175" fill="#6AAD64"/>
</g>
<defs>
<clipPath id="clip0">
<rect width="1626" height="968" fill="white"/>
</clipPath>
</defs>
</svg>
